<?xml version="1.0"?>
<svg xmlns="http://www.w3.org/2000/svg" xmlns:xlink="http://www.w3.org/1999/xlink" xmlns:svgjs="http://svgjs.com/svgjs" version="1.1" width="512" height="512" x="0" y="0" viewBox="0 0 512 512" style="enable-background:new 0 0 512 512" xml:space="preserve" class=""><g><g xmlns="http://www.w3.org/2000/svg"><path d="m263.231 71.889c-.052-.138-.106-.274-.162-.411-2.745-6.671-9.175-10.978-16.387-10.978-.006 0-.012 0-.018 0-7.219.007-13.65 4.329-16.383 11.01-.046.113-.091.227-.134.341l-45.06 118.31c-2.949 7.742.937 16.408 8.679 19.356 7.741 2.948 16.408-.937 19.356-8.679l7.543-19.804h51.691l7.458 19.762c2.267 6.007 7.974 9.708 14.036 9.708 1.76 0 3.55-.312 5.294-.97 7.75-2.925 11.663-11.579 8.737-19.33zm-31.14 79.146 14.538-38.171 14.406 38.171z" fill="#f8f6fb" data-original="#000000" style=""/><path d="m169.487 367.253c4.332-6.669 6.859-14.613 6.859-23.141 0-23.497-19.116-42.612-42.612-42.612h-34.857c-8.284 0-15 6.716-15 15v120c0 3.99 1.589 7.815 4.417 10.63 2.812 2.799 6.617 4.37 10.583 4.37h.066c.321-.001 32.166-.143 40.878-.143 26.082 0 47.3-21.219 47.3-47.3.002-14.855-6.888-28.126-17.634-36.804zm-55.61-35.753h19.857c6.954 0 12.612 5.658 12.612 12.612s-5.658 12.888-12.612 12.888c-2.607 0-19.857 0-19.857 0zm25.945 89.857c-4.758 0-16.31.042-25.945.08v-34.653c2.376-.009 25.945-.027 25.945-.027 9.54 0 17.3 7.761 17.3 17.3s-7.76 17.3-17.3 17.3z" fill="#f8f6fb" data-original="#000000" style=""/><path d="m457 241h-81.059c3.849-7.507 6.035-16 6.035-25v-161c0-30.327-24.673-55-55-55h-161c-30.327 0-55 24.673-55 55v161c0 9 2.187 17.493 6.035 25h-62.011c-30.327 0-55 24.673-55 55v161c0 30.327 24.673 55 55 55h161c15.75 0 29.964-6.665 40-17.31 10.036 10.645 24.25 17.31 40 17.31h161c30.327 0 55-24.673 55-55v-161c0-30.327-24.673-55-55-55zm-216 216c0 13.785-11.215 25-25 25h-161c-13.785 0-25-11.215-25-25v-161c0-13.785 11.215-25 25-25h161c13.785 0 25 11.215 25 25zm-75.024-216c-13.785 0-25-11.215-25-25v-161c0-13.785 11.215-25 25-25h161c13.785 0 25 11.215 25 25v161c0 13.785-11.215 25-25 25zm316.024 216c0 13.785-11.215 25-25 25h-161c-13.785 0-25-11.215-25-25v-161c0-13.785 11.215-25 25-25h161c13.785 0 25 11.215 25 25z" fill="#f8f6fb" data-original="#000000" style=""/><path d="m435.039 408.069c-6.348-5.324-15.808-4.493-21.132 1.854-1.044 1.246-2.173 2.41-3.354 3.462-6.045 5.385-13.768 8.115-22.953 8.115-24.813 0-45-20.187-45-45s20.187-45 45-45c9.02 0 17.716 2.654 25.15 7.677 6.866 4.637 16.189 2.832 20.827-4.033 4.637-6.865 2.832-16.189-4.033-20.827-12.413-8.385-26.917-12.817-41.944-12.817-41.355 0-75 33.645-75 75s33.645 75 75 75c16.529 0 31.366-5.433 42.907-15.713 2.263-2.015 4.411-4.231 6.386-6.586 5.323-6.348 4.493-15.809-1.854-21.132z" fill="#f8f6fb" data-original="#000000" style=""/></g></g></svg>
