<?xml version="1.0"?>
<svg xmlns="http://www.w3.org/2000/svg" xmlns:xlink="http://www.w3.org/1999/xlink" xmlns:svgjs="http://svgjs.com/svgjs" version="1.1" width="512" height="512" x="0" y="0" viewBox="0 0 512.001 512.001" style="enable-background:new 0 0 512 512" xml:space="preserve"><g><g xmlns="http://www.w3.org/2000/svg"><path d="m437.02 74.981c-48.352-48.352-112.639-74.981-181.019-74.981s-132.667 26.629-181.02 74.98c-48.351 48.352-74.98 112.639-74.98 181.02 0 45.933 12.43 90.907 36.011 130.533l-35.242 105.724c-1.797 5.39-.394 11.332 3.624 15.35 2.859 2.859 6.692 4.395 10.608 4.394 1.587 0 3.188-.252 4.741-.77l105.724-35.241c39.626 23.581 84.601 36.01 130.534 36.01 68.38 0 132.667-26.629 181.02-74.98 48.352-48.353 74.98-112.64 74.98-181.02 0-68.381-26.629-132.668-74.981-181.019zm-181.019 407.019c-42.629 0-84.339-12.146-120.618-35.124-2.429-1.538-5.217-2.328-8.027-2.328-1.594 0-3.195.254-4.742.77l-83.896 27.966 27.966-83.896c1.425-4.274.853-8.963-1.559-12.77-22.979-36.279-35.124-77.989-35.124-120.618 0-124.617 101.383-226 226-226s226 101.383 226 226-101.383 226-226 226z" fill="#445167" data-original="#000000" style=""/><path d="m406.31 210.956c-12.167-40.313-39.389-73.323-76.651-92.948-37.255-19.62-79.888-23.387-120.045-10.604-38.05 12.112-69.706 38.225-89.137 73.529-19.437 35.313-24.548 76.027-14.394 114.64 8.797 33.445 27.789 62.298 54.924 83.438 26.128 20.355 58.671 32.067 91.635 32.979.142.004.282.006.423.006 8.092 0 14.762-6.445 14.986-14.585.229-8.281-6.298-15.181-14.579-15.409-55.536-1.536-104.213-40.215-118.375-94.061-17.056-64.852 19.674-131.598 83.616-151.952 32.438-10.326 66.876-7.285 96.966 8.562 30.024 15.813 51.979 42.385 61.84 74.839 6.272 23.69 4.23 45.663-6.811 73.422-3.109 7.82-12.763 26.01-35.178 26.01-3.418 0-6.892-1.599-9.78-4.502-3.867-3.887-6.159-9.604-6.131-15.292l.612-123.684c.041-8.284-6.642-15.033-14.926-15.074-.025 0-.05 0-.076 0-8.248 0-14.957 6.667-14.998 14.926l-.044 8.902c-11.057-8.807-24.645-13.798-39.798-13.798-19.336 0-38.316 8.738-52.075 23.974-14.138 15.655-21.924 37.044-21.924 60.228 0 23.196 7.356 44.929 20.716 61.193 13.573 16.527 32.448 26.006 51.784 26.006 17.608 0 33.521-7.539 45.803-20.188 2.456 5.161 5.749 9.907 9.789 13.968 8.562 8.604 19.587 13.342 31.047 13.342 33.318 0 54.418-23.206 63.054-44.923 13.468-33.859 15.892-62.38 7.857-92.478-.039-.156-.083-.311-.13-.466zm-157.419 100.745c-23.435 0-42.5-25.659-42.5-57.199 0-33.928 22.371-54.201 43.999-54.201 22.663 0 38.659 20.999 39.463 51.364l-.028 5.606c-1.185 30.293-19.09 54.43-40.934 54.43z" fill="#445167" data-original="#000000" style=""/></g></g></svg>
