<svg id="Layer_1" enable-background="new 0 0 512.003 512.003" height="512" viewBox="0 0 512.003 512.003" width="512" xmlns="http://www.w3.org/2000/svg"><path d="m511.975 198.319c.02-1.659.027-3.319.027-4.98 0-29.265-10.303-57.044-29.178-79.116 1.296-6.293 1.951-12.718 1.951-19.19 0-52.39-42.749-95.012-95.293-95.012-52.545 0-95.294 42.622-95.294 95.012 0 6.473.655 12.897 1.951 19.19-7.594 8.88-13.797 18.685-18.503 29.137-2.156.969-4.253 2.056-6.285 3.259-11.511-5.831-24.23-8.876-37.315-8.876-25.071 0-48.752 11.527-64.331 30.727-4.845-1.159-9.827-1.743-14.907-1.743-5.474 0-10.825.675-16.008 2.014-15.569-19.373-39.316-30.997-64.558-30.997-30.017 0-57.735 16.313-72.339 42.571-4.027 7.24-1.421 16.373 5.818 20.4 2.309 1.283 4.81 1.894 7.277 1.894 5.269 0 10.38-2.781 13.123-7.712 9.315-16.749 26.988-27.153 46.122-27.153 18.849 0 36.392 10.172 45.783 26.545 3.95 6.888 12.584 9.502 19.691 5.968 4.708-2.342 9.786-3.529 15.091-3.529 5.027 0 9.864 1.071 14.376 3.184 7.022 3.287 15.393.682 19.307-6.011 9.438-16.134 26.894-26.156 45.554-26.156 10.635 0 20.881 3.149 29.632 9.108 1.301.886 2.705 1.534 4.154 1.967-.567 4.786-.861 9.632-.861 14.52 0 18.327 1.9 36.888 8.375 54.152 2.807 7.483 6.283 14.594 11.159 20.928 1.995 2.591 10.386 10.393 9.644 13.997-1.296 6.293-1.951 12.718-1.951 19.19 0 47.302 34.85 86.636 80.294 93.831v86.545h-98.48v-31h4c8.284 0 15-6.716 15-15s-6.716-15-15-15h-3v-66c0-8.284-6.716-15-15-15h-229c-8.284 0-15 6.716-15 15v66h-3c-8.284 0-15 6.716-15 15s6.716 15 15 15h4v31h-4c-8.284 0-15 6.716-15 15s6.716 15 15 15h482c8.284 0 15-6.716 15-15s-6.716-15-15-15h-92.521v-86.545c45.443-7.195 80.293-46.529 80.293-93.831 0-6.473-.655-12.897-1.951-19.19 11.357-13.281 19.811-28.967 24.574-45.785 3.55-12.526 4.426-25.388 4.579-38.313zm-463.973 171.663h199v51h-199zm1.001 81h196.999v31h-196.999zm433.192-247.674c-1.085 23.978-9.966 47.516-26.595 64.434-3.855 3.923-5.255 9.641-3.646 14.9 1.873 6.125 2.822 12.505 2.822 18.964 0 30.707-21.5 56.492-50.293 63.261v-140.3c1.548-.72 3.004-1.702 4.281-2.979l35.846-35.846c5.858-5.857 5.858-15.355 0-21.213-5.857-5.857-15.355-5.857-21.213 0l-18.914 18.914v-28.855c0-8.284-6.716-15-15-15s-15 6.716-15 15v88.507l-15.508-15.508c-5.857-5.857-15.355-5.857-21.213 0s-5.858 15.355 0 21.213l35.846 35.846c.281.281.578.537.875.791v79.429c-28.794-6.768-50.294-32.553-50.294-63.261 0-6.459.949-12.839 2.822-18.964 1.608-5.26.209-10.978-3.646-14.9-17.026-17.322-26.402-40.209-26.402-64.442 0-3.321 0-6.64 0-9.96 0-24.233 9.376-47.12 26.402-64.442 3.855-3.923 5.255-9.641 3.646-14.9-1.873-6.125-2.822-12.505-2.822-18.964 0-35.848 29.291-65.012 65.294-65.012s65.293 29.164 65.293 65.012c0 6.459-.949 12.839-2.822 18.964-1.608 5.259-.209 10.977 3.645 14.899 18.988 19.323 27.829 47.152 26.596 74.412z"/></svg>