<svg id="Capa_1" enable-background="new 0 0 510.778 510.778" height="512" viewBox="0 0 510.778 510.778" width="512" xmlns="http://www.w3.org/2000/svg"><g><path d="m190 191.389c0-34.738-28.262-63-63-63s-63 28.262-63 63v63h126zm-30 33h-66v-33c0-18.196 14.804-33 33-33s33 14.804 33 33z"/><path d="m510.778 478.389-32.778-144.676v-77.323h-64v-90h33v-30c-17.078 0-142.459 0-160 0v30h33v90h-66v-162h32v-94h-286v447c0 34.738 28.262 63 63 63 23.467 0 43.964-12.907 54.804-31.986l92.683.041c6.292 18.552 23.862 31.945 44.513 31.945 20.649 0 38.217-13.391 44.511-31.94h46.979c6.293 18.549 23.862 31.94 44.511 31.94 20.671 0 38.255-13.42 44.531-32h75.246zm-160.778-312h34v90h-34zm98 120v34h-194v-34zm-418-256h226v34c-10.961 0-214.856 0-226 0zm194 64v226h-37.017l-56-32h-100.983v-194zm-161 386c-18.196 0-33-14.804-33-33s14.804-33 33-33 33 14.804 33 33-14.804 33-33 33zm-33-86.637v-75.363h93.017l56 32h272.002l22.203 98h-37.69c-6.276-18.58-23.86-32-44.531-32-20.694 0-38.293 13.448-44.552 32.06h-46.897c-6.258-18.612-23.858-32.06-44.552-32.06-20.691 0-38.29 13.446-44.55 32.055l-84.476-.037c.805-49.816-53.965-80.596-95.974-54.655zm225 86.637c-9.374 0-17-7.626-17-17s7.626-17 17-17 17 7.626 17 17-7.626 17-17 17zm136 0c-9.374 0-17-7.626-17-17s7.626-17 17-17 17 7.626 17 17-7.626 17-17 17z"/></g></svg>