<svg id="Capa_1" enable-background="new 0 0 512 512" height="512" viewBox="0 0 512 512" width="512" xmlns="http://www.w3.org/2000/svg"><g><path d="m406 361c8.284 0 15-6.716 15-15 0-58.449-47.103-106-105-106h-15v-15.058c14.956-11.256 25.593-27.957 28.907-47.141 18.029-5.871 31.093-22.839 31.093-42.801v-30c0-57.897-47.103-105-105-105s-105 47.103-105 105v30c0 19.962 13.064 36.93 31.093 42.801 3.314 19.185 13.952 35.885 28.907 47.141v15.058h-15c-57.897 0-105 47.551-105 106 0 8.284 6.716 15 15 15 36.289 0 66.634 26.253 73.526 61h-43.526c-8.284 0-15 6.716-15 15v60c0 8.284 6.716 15 15 15h240c8.284 0 15-6.716 15-15v-60c0-8.284-6.716-15-15-15h-43.526c6.892-34.747 37.237-61 73.526-61zm-150-331c36.988 0 67.787 26.921 73.884 62.194-.53-.172-1.062-.338-1.601-.491-2.667-6.205-7.204-11.535-13.19-15.236-9.962-6.155-22.16-6.704-32.634-1.468-19.626 9.813-41.599 15-63.541 15h-22.918c-4.845 0-9.509.779-13.885 2.202 6.093-35.275 36.894-62.201 73.885-62.201zm-60 120c-8.271 0-15-6.729-15-15s6.729-15 15-15h22.918c26.576 0 53.188-6.282 76.957-18.167 1.104-.552 2.395-.496 3.445.154 1.052.65 1.68 1.776 1.68 3.013 0 8.284 6.716 15 15 15 8.271 0 15 6.729 15 15s-6.729 15-15 15c-8.284 0-15 6.716-15 15 0 24.813-20.187 45-45 45s-45-20.187-45-45c0-8.284-6.716-15-15-15zm165 332h-210v-30h210zm-151.048-60c-6.483-46.01-42.338-82.6-87.725-89.736 6.398-35.373 37.044-62.264 73.773-62.264h30c8.284 0 15-6.716 15-15v-16.526c4.85.989 9.862 1.526 15 1.526s10.15-.537 15-1.526v16.526c0 8.284 6.716 15 15 15h30c36.729 0 67.375 26.891 73.772 62.264-45.386 7.136-81.241 43.726-87.724 89.736z"/></g></svg>